<svg width="1920" height="425" viewBox="0 0 1920 425" fill="none" xmlns="http://www.w3.org/2000/svg">
<g opacity="0.2">
<path d="M2259.5 62.9162C2254.23 62.9901 2248.98 63.8164 2242.96 63.9009C2139.87 65.3476 2139.14 13.4285 2036.81 14.8646C1933.72 16.3113 1934.45 68.2304 1832.11 69.6665C1729.03 71.1132 1728.3 19.1941 1625.97 20.6302C1522.88 22.0769 1523.61 73.996 1421.27 75.4321C1318.19 76.8788 1317.46 24.9597 1215.13 26.3958C1112.04 27.8425 1112.77 79.7616 1010.43 81.1977C907.347 82.6444 906.619 30.7253 804.285 32.1614C701.198 33.6081 701.927 85.5272 599.593 86.9634C496.506 88.41 495.778 36.4909 392.691 37.9376C290.357 39.3737 291.086 91.2928 188 92.7395C85.6657 94.1756 84.9371 42.2565 -18.1493 43.7032C-120.483 45.1393 -119.755 97.0585 -222.841 98.5051C-286.047 99.3922 -310.401 80.1663 -343.72 65.5819L-353 561.5L962.5 561.5L2242.96 575.5L2259.5 62.9162Z" fill="url(#paint0_linear_34_69)"/>
</g>
<g opacity="0.2">
<path d="M2229.67 51.2037C2224.4 51.3015 2219.15 52.1517 2213.13 52.2635C2110.05 54.1784 2109.09 2.26314 2006.76 4.16405C1903.68 6.07894 1904.64 57.9942 1802.32 59.8951C1699.24 61.81 1698.27 9.89475 1595.95 11.7957C1492.87 13.7105 1493.83 65.6258 1391.51 67.5267C1288.43 69.4416 1287.46 17.5263 1185.14 19.4273C1082.06 21.3421 1083.02 73.2574 980.697 75.1583C877.618 77.0732 876.654 25.1579 774.328 27.0588C671.249 28.9737 672.214 80.889 569.887 82.7899C466.808 84.7048 465.844 32.7895 362.765 34.7044C260.439 36.6053 261.403 88.5206 158.324 90.4355C55.998 92.3364 55.0338 40.4211 -48.045 42.336C-150.371 44.2369 -149.407 96.1522 -252.486 98.0671C-315.687 99.2412 -340.128 80.1262 -373.513 65.6933L-362 487.5L973 454L2229.67 434.5L2229.67 51.2037Z" fill="url(#paint1_linear_34_69)"/>
</g>
<defs>
<linearGradient id="paint0_linear_34_69" x1="957.41" y1="30.0148" x2="948.5" y2="664.5" gradientUnits="userSpaceOnUse">
<stop stop-color="#1A7F72"/>
<stop offset="1" stop-color="#7ADBAE"/>
</linearGradient>
<linearGradient id="paint1_linear_34_69" x1="927.441" y1="24.2145" x2="921.413" y2="658.734" gradientUnits="userSpaceOnUse">
<stop stop-color="#1A7F72"/>
<stop offset="1" stop-color="#7ADBAE"/>
</linearGradient>
</defs>
</svg>
