<svg width="157" height="173" viewBox="0 0 157 173" fill="none" xmlns="http://www.w3.org/2000/svg">
<g opacity="0.07" clip-path="url(#clip0_43_1)">
<path d="M5.4 125.16C5.4 125.16 16.285 39.4308 155.23 48.7823C155.23 48.7823 92.5714 168.661 5.4 125.16Z" fill="url(#paint0_linear_43_1)"/>
<path opacity="0.08" d="M72.3076 129.525C56.9433 105.697 72.6416 75.8871 92.244 51.9379C12.864 67.4104 5.40011 125.16 5.40011 125.16C29.9938 137.462 52.5311 136.873 72.3076 129.525Z" fill="#1F5148"/>
<path opacity="0.8" d="M95.5619 111.821L58.6736 99.6891L103.639 75.9073L124.463 82.9867L106.061 74.7496L119.816 67.2948L120.203 67.5489L120.455 67.1649L141.727 55.8529L121.211 66.0129L127.85 51.6867L118.403 66.9166L118.79 67.1707L81.3237 85.435L95.1221 57.6747L78.2631 86.7227L32.002 109.104C32.2542 108.72 32.5063 108.336 32.7585 107.952C34.6409 104.242 37.5319 98.9962 40.1707 94.1342C45.7006 84.0261 50.8435 73.664 50.8435 73.664C50.8435 73.664 44.9267 83.518 39.3969 93.626C36.3711 98.234 33.4801 103.48 31.2108 106.936C30.2022 108.472 29.4457 109.624 28.9414 110.392L4.22193 122.738L6.57831 127.582L56.639 101.101L95.5619 111.821Z" fill="#1F5148"/>
</g>
<defs>
<linearGradient id="paint0_linear_43_1" x1="534.425" y1="415.889" x2="-1019.15" y2="-711.019" gradientUnits="userSpaceOnUse">
<stop stop-color="#41CBB9"/>
<stop offset="1" stop-color="#3EB29D"/>
</linearGradient>
<clipPath id="clip0_43_1">
<rect width="147.461" height="89.8003" fill="white" transform="translate(0 123.263) rotate(-56.7094)"/>
</clipPath>
</defs>
</svg>
