<svg width="171" height="139" viewBox="0 0 171 139" fill="none" xmlns="http://www.w3.org/2000/svg">
<g opacity="0.07" clip-path="url(#clip0_43_11)">
<path d="M167.054 79.1972C167.054 79.1972 109.021 143.23 0.492001 55.9689C0.492001 55.9689 120.524 -6.3957 167.054 79.1972Z" fill="url(#paint0_linear_43_11)"/>
<path opacity="0.08" d="M114.714 37.2905C113.657 65.6227 83.713 81.0638 53.9263 89.4645C127.854 122.256 167.054 79.1973 167.054 79.1973C153.943 55.0249 135.133 42.597 114.714 37.2905Z" fill="#1F5148"/>
<path opacity="0.8" d="M85.5113 38.4804L108.797 69.5563L58.3174 63.2902L45.3041 45.5581L55.6693 62.8519L40.1243 61.0824L39.9527 60.6525L39.526 60.8228L15.6102 57.9088L38.2461 61.3337L24.598 69.2733L41.0657 62.2018L40.8941 61.7719L82.0663 68.2643L54.8535 83.1136L85.3126 68.9622L136.052 77.1182C135.625 77.2885 135.199 77.4588 134.772 77.6291C131.104 79.5917 125.729 82.2355 120.781 84.709C110.458 89.8262 100.306 95.3734 100.306 95.3734C100.306 95.3734 110.801 90.686 121.124 85.5688C126.244 83.5252 131.619 80.8814 135.458 79.3487C137.165 78.6675 138.445 78.1566 139.298 77.816L166.632 81.8577L167.476 76.5369L111.274 69.5646L85.5113 38.4804Z" fill="#1F5148"/>
</g>
<defs>
<linearGradient id="paint0_linear_43_11" x1="-100.016" y1="-462.157" x2="527.818" y2="1351.5" gradientUnits="userSpaceOnUse">
<stop stop-color="#41CBB9"/>
<stop offset="1" stop-color="#3EB29D"/>
</linearGradient>
<clipPath id="clip0_43_11">
<rect width="147.461" height="89.8003" fill="white" transform="translate(170.394 83.8457) rotate(158.24)"/>
</clipPath>
</defs>
</svg>
