<svg width="1920" height="421" viewBox="0 0 1920 421" fill="none" xmlns="http://www.w3.org/2000/svg">
<path d="M2229.67 47.2037C2224.4 47.3015 2219.15 48.1517 2213.13 48.2635C2110.05 50.1784 2109.09 -1.73686 2006.76 0.164053C1903.68 2.07894 1904.64 53.9942 1802.32 55.8951C1699.24 57.81 1698.27 5.89475 1595.95 7.79566C1492.87 9.71055 1493.83 61.6258 1391.51 63.5267C1288.43 65.4416 1287.46 13.5263 1185.14 15.4273C1082.06 17.3421 1083.02 69.2574 980.697 71.1583C877.618 73.0732 876.654 21.1579 774.328 23.0588C671.249 24.9737 672.214 76.889 569.887 78.7899C466.808 80.7048 465.844 28.7895 362.765 30.7044C260.439 32.6053 261.403 84.5206 158.324 86.4355C55.9981 88.3364 55.0338 36.4211 -48.045 38.336C-150.371 40.2369 -149.407 92.1522 -252.486 94.0671C-315.687 95.2412 -340.128 76.1262 -373.513 61.6933L-362 483.5L973 450L2229.67 430.5L2229.67 47.2037Z" fill="url(#paint0_linear_34_16)"/>
<defs>
<linearGradient id="paint0_linear_34_16" x1="927.441" y1="20.2145" x2="921.413" y2="654.734" gradientUnits="userSpaceOnUse">
<stop stop-color="#1A7F72"/>
<stop offset="1" stop-color="#7ADBAE"/>
</linearGradient>
</defs>
</svg>
