<svg width="704" height="554" viewBox="0 0 704 554" fill="none" xmlns="http://www.w3.org/2000/svg">
<g opacity="0.1" clip-path="url(#clip0_34_7)">
<path d="M209.436 154.091C243.658 146.829 279.938 147.753 313.336 137.143C358.404 123.116 393.297 90.5151 431.042 63.8601C469.193 37.5755 517.849 16.0784 563.065 29.6225C623.217 47.5578 644.538 115.254 656.533 172.568C669.354 233.603 682.175 294.639 694.997 356.046C702.022 388.424 708.257 423.786 691.486 453.309C670.324 490.681 620.818 503.986 576.115 510.931C398.516 539.45 -69.3245 561.323 61.7237 269.263C87.2147 212.122 144.213 167.852 209.436 154.091Z" fill="url(#paint0_linear_34_7)"/>
</g>
<g opacity="0.1" clip-path="url(#clip1_34_7)">
<path d="M181.717 167.451C215.263 157.525 251.504 155.598 283.966 142.398C327.794 124.877 360.019 89.6373 395.556 60.1014C431.526 30.9029 478.344 5.65243 524.483 15.6051C585.858 28.7629 612.427 94.5766 628.884 150.772C646.457 210.612 664.03 270.453 681.634 330.664C691.179 362.39 700.171 397.154 685.77 427.903C667.606 466.82 619.297 483.97 575.278 494.404C400.466 536.777 -64.2136 595.31 43.5022 293.864C64.4286 234.897 117.776 186.29 181.717 167.451Z" fill="url(#paint1_linear_34_7)"/>
</g>
<path d="M135.546 477.569C135.546 477.569 105.76 483.021 104.307 483.021C92.3205 483.748 42.9202 498.651 44.3732 508.828C45.0997 510.282 52.0012 512.1 54.9071 507.011C65.0777 511.736 68.7101 510.282 75.6116 507.374C80.3337 505.557 84.3293 504.467 88.3249 508.465C91.9573 512.463 103.581 516.098 110.119 512.463C115.931 509.192 113.751 503.74 118.11 499.378C118.474 499.014 147.533 492.108 148.259 491.745C153.708 487.383 137.725 476.478 135.546 477.569Z" fill="#F4A082"/>
<path fill-rule="evenodd" clip-rule="evenodd" d="M526.752 140.619C526.752 140.619 517.671 99.5458 482.8 88.6413C456.284 80.2812 409.79 79.5542 391.991 119.901C372.013 166.063 399.982 161.338 386.906 181.693C373.829 202.048 353.851 195.869 350.219 212.225C346.586 228.582 361.116 251.118 356.757 260.205C352.035 269.292 329.151 286.012 334.963 300.552C341.864 317.999 356.031 322.361 350.945 331.448C341.138 348.895 323.702 345.624 326.245 349.622C328.788 353.62 383.273 377.247 401.072 358.345C414.512 344.533 407.973 321.997 410.153 311.456C414.875 290.374 445.387 280.197 464.638 272.564C484.253 264.93 486.433 236.215 491.881 222.766C497.693 209.681 537.649 210.771 526.752 140.619Z" fill="#1D3542"/>
<path d="M480.984 97.7291C464.639 88.6421 422.503 85.3707 404.341 125.717C387.269 163.883 413.422 173.697 400.346 193.689C387.269 213.68 366.565 208.955 362.932 225.312C359.3 241.668 373.829 256.935 369.107 266.022C364.385 275.109 343.317 286.74 349.129 300.916C356.031 318.363 370.923 323.088 344.407 348.532" stroke="#01080A" stroke-miterlimit="10" stroke-linecap="round" stroke-linejoin="round"/>
<path d="M394.17 117.719C374.192 156.612 391.628 155.158 378.188 176.967C364.748 198.776 345.86 194.051 341.864 211.498C337.868 228.945 354.577 250.027 349.855 259.841C345.133 269.655 325.882 284.558 335.326 300.188" stroke="#01080A" stroke-miterlimit="10" stroke-linecap="round" stroke-linejoin="round"/>
<path d="M484.98 108.269C468.634 99.1819 464.275 114.812 413.785 127.534C396.713 165.699 427.588 177.694 414.512 198.049C401.435 218.404 380.73 213.315 377.098 229.672C373.466 246.029 387.995 261.295 383.273 270.382C378.551 279.469 357.483 291.101 363.295 305.277C370.197 322.724 385.089 327.449 358.573 352.893" stroke="#01080A" stroke-miterlimit="10" stroke-linecap="round" stroke-linejoin="round"/>
<path d="M441.754 136.985C422.503 174.06 453.015 187.872 438.848 207.5C424.682 227.129 404.341 220.949 399.619 236.943C395.26 252.936 409.063 268.929 403.978 278.016C398.892 287.103 377.098 297.281 382.183 312.183C388.359 329.994 397.076 330.721 369.107 355.074" stroke="#01080A" stroke-miterlimit="10" stroke-linecap="round" stroke-linejoin="round"/>
<path d="M473.356 147.525C450.472 182.42 479.168 199.14 463.186 217.314C447.203 235.488 427.225 227.128 421.413 242.758C415.238 258.388 427.225 275.471 421.413 283.831C415.238 292.191 392.718 300.188 396.35 315.454C400.709 333.629 409.063 335.446 378.915 356.891" stroke="#01080A" stroke-miterlimit="10" stroke-linecap="round" stroke-linejoin="round"/>
<path d="M452.652 177.694C451.199 185.691 450.472 216.587 446.477 215.86C445.024 215.496 433.763 216.95 431.947 216.95C419.234 218.768 397.077 215.86 392.354 228.218C387.996 239.123 433.037 279.833 426.135 306.731C423.23 317.999 411.606 356.891 410.88 368.523C462.822 377.973 516.945 369.25 516.218 364.888C516.218 336.173 501.689 321.633 504.595 298.007C506.774 295.099 514.402 271.109 514.765 263.84C515.129 256.933 548.183 234.398 531.111 223.13C509.68 209.317 483.164 219.131 482.437 214.043C481.711 208.954 482.074 195.868 480.258 181.693C478.442 168.971 454.105 169.334 452.652 177.694Z" fill="#F4A082"/>
<path opacity="0.6" d="M478.441 187.872C478.441 193.688 468.634 202.411 459.553 202.048C450.472 202.048 450.393 198.365 451.293 192.282C451.293 186.466 450.109 180.239 459.19 180.239C468.634 180.602 478.441 181.693 478.441 187.872Z" fill="#DB8C70"/>
<path d="M434.127 149.344C434.127 149.344 428.315 143.165 427.952 150.798C427.225 166.791 436.669 168.972 437.759 169.335C439.212 169.699 434.127 149.344 434.127 149.344Z" fill="#F4A082"/>
<path d="M498.056 149.706C498.056 149.706 503.868 143.526 504.231 151.16C504.958 167.153 495.514 169.334 494.424 169.697C492.971 170.061 498.056 149.706 498.056 149.706Z" fill="#F4A082"/>
<path fill-rule="evenodd" clip-rule="evenodd" d="M434.49 133.713C433.763 139.165 433.037 145.708 433.4 152.614C433.4 184.964 452.652 193.688 469.361 194.051C491.518 195.142 502.415 164.609 500.236 146.799C498.783 135.531 497.33 130.442 493.698 123.536C480.984 105.362 484.617 119.537 434.49 133.713Z" fill="#F4A082"/>
<path d="M515.068 251.666C509.85 244.123 505.602 229.656 504.036 223.139C502.469 216.623 500.997 215.558 500.997 215.558C500.997 215.558 496.62 214.544 495.186 215.66C495.569 216.744 506.237 245.277 502.656 248.248C499.795 250.842 473.517 264.752 463.417 268.927C453.178 265.107 424.616 252.155 421.666 249.661C418.347 246.811 427.33 218.611 427.674 217.514C425.425 217.064 422.05 217.514 422.05 217.514C422.05 217.514 420.753 218.05 419.414 224.617C418.075 231.184 416.13 244.669 411.918 253.104C405.257 267.034 405.548 283.752 419.226 297.328C419.965 298.042 421.106 300.93 421.857 302.371C422.978 304.169 419.808 330.763 419.808 330.763C444.701 341.598 496.942 337.414 510.241 329.184C510.241 329.184 508.926 295.398 509.64 294.658C521.811 284.267 520.285 259.209 515.068 251.666Z" fill="#FFD2B9"/>
<path d="M466.818 140.256C468.634 148.252 467.181 156.613 466.455 158.067C465.002 160.247 461.369 158.43 461.733 160.247C462.459 164.609 467.908 164.973 470.45 163.155" stroke="#EFAFA3" stroke-width="1.38" stroke-miterlimit="10" stroke-linecap="round" stroke-linejoin="round"/>
<path opacity="0.69" d="M442.844 137.711C445.024 136.621 449.746 135.894 453.378 137.348" stroke="#682C1A" stroke-width="1.31" stroke-miterlimit="10" stroke-linecap="round" stroke-linejoin="round"/>
<path d="M454.468 149.343C452.652 152.251 446.114 152.614 443.934 149.706" stroke="#49241B" stroke-miterlimit="10" stroke-linecap="round" stroke-linejoin="round"/>
<path d="M490.065 149.707C488.249 152.614 481.711 152.978 479.531 150.07" stroke="#49241B" stroke-miterlimit="10" stroke-linecap="round" stroke-linejoin="round"/>
<path opacity="0.69" d="M489.339 138.076C487.159 136.985 482.074 136.258 478.442 137.712" stroke="#682C1A" stroke-width="1.31" stroke-miterlimit="10" stroke-linecap="round" stroke-linejoin="round"/>
<path d="M459.19 173.425C459.916 174.879 468.634 179.241 474.446 173.062" stroke="#BC4926" stroke-width="1.45" stroke-miterlimit="10" stroke-linecap="round" stroke-linejoin="round"/>
<path opacity="0.24" fill-rule="evenodd" clip-rule="evenodd" d="M453.741 162.792C452.288 165.7 447.566 166.427 443.208 164.973C438.849 163.156 436.669 159.521 438.485 156.613C439.938 153.705 444.66 152.978 449.019 154.432C453.378 156.249 455.194 159.884 453.741 162.792Z" fill="#ED5851"/>
<path opacity="0.24" fill-rule="evenodd" clip-rule="evenodd" d="M480.984 163.156C482.8 165.7 487.522 166.427 491.518 164.246C495.514 162.066 497.33 158.431 495.514 155.523C493.697 152.979 488.975 152.252 484.98 154.432C480.621 156.613 478.805 160.612 480.984 163.156Z" fill="#ED5851"/>
<path d="M465.728 365.251C465.728 367.068 465.002 368.886 463.912 368.886C462.823 368.886 462.096 367.432 462.096 365.251C462.096 363.434 462.823 361.616 463.912 361.616C464.639 361.98 465.728 363.434 465.728 365.251Z" fill="#EFAFA3"/>
<path d="M429.768 117.72C435.216 108.633 458.464 93.73 482.074 96.2744" stroke="#01080A" stroke-miterlimit="10" stroke-linecap="round" stroke-linejoin="round"/>
<path d="M622.647 282.377C626.279 270.746 613.203 252.208 595.767 259.478C574.336 264.93 514.765 351.075 514.765 351.075C514.765 351.075 473.356 365.251 412.696 355.074C410.516 360.162 403.978 374.702 403.978 374.702C403.978 374.702 350.219 403.78 270.307 440.129C239.068 454.304 135.183 476.113 135.183 477.204C135.183 480.839 135.183 493.561 135.183 493.561C135.183 493.561 257.593 507.373 295.37 466.663C295.37 466.663 393.807 457.212 466.455 423.772C518.761 428.134 539.466 399.419 571.43 360.162C596.494 329.266 616.835 300.915 622.647 282.377Z" fill="#1F5148"/>
<path d="M411.928 358.097C411.928 358.097 460.965 372.967 513.676 354.71" stroke="#1D4941" stroke-width="1.44" stroke-miterlimit="10" stroke-linecap="round" stroke-linejoin="round"/>
<path d="M410.354 361.477C410.354 361.477 462.54 377.923 512.223 358.709" stroke="#1D4941" stroke-width="1.44" stroke-miterlimit="10" stroke-linecap="round" stroke-linejoin="round"/>
<path d="M515.401 351.113L506.048 373.247" stroke="#1D4941" stroke-width="1.44" stroke-miterlimit="10" stroke-linecap="round"/>
<path d="M590.682 420.502C590.682 420.502 583.78 449.217 583.417 450.671C582.691 457.94 586.323 470.299 579.058 498.287C591.408 500.104 587.413 509.918 578.332 509.918C552.542 509.918 559.443 493.562 563.439 482.294C565.255 477.205 562.713 471.753 558.717 468.118C554.721 464.483 550.363 453.215 553.632 446.672C556.901 440.857 564.529 442.311 568.524 437.949C568.888 437.585 568.161 413.232 568.524 412.505C572.883 405.962 591.408 418.321 590.682 420.502Z" fill="#F4A082"/>
<path d="M622.647 275.834C627.369 312.909 590.319 404.507 590.319 435.766C590.319 435.766 575.789 442.309 568.161 433.949C569.251 407.051 547.093 359.072 582.327 311.455C603.758 282.013 609.57 284.194 622.647 275.834Z" fill="#1F5148"/>
<path d="M575.212 316.37C575.212 316.37 558.978 343.455 562.414 377.247" stroke="#1D4941" stroke-width="1.75" stroke-miterlimit="10" stroke-linecap="round"/>
<path d="M392.354 228.219C387.269 232.581 360.026 343.807 368.744 348.169C377.825 352.53 465.728 309.276 465.728 309.276C465.728 309.276 463.912 260.206 463.912 247.484C458.827 246.757 452.652 299.098 452.652 299.098C452.652 299.098 399.619 319.09 396.713 321.634C393.807 324.179 409.426 257.661 412.696 252.573C413.785 247.484 397.803 224.221 392.354 228.219Z" fill="#F4A082"/>
<path d="M534.743 228.219C539.829 232.581 567.072 343.807 558.354 348.169C549.273 352.53 461.733 309.276 461.733 309.276C461.733 309.276 463.549 260.206 463.549 247.484C468.634 246.757 474.809 299.098 474.809 299.098C474.809 299.098 527.842 319.09 530.748 321.634C533.654 324.179 518.035 257.661 514.765 252.573C513.312 247.484 529.658 224.221 534.743 228.219Z" fill="#F4A082"/>
<path d="M463.549 310.003L463.912 246.03" stroke="#DB8C70" stroke-width="1.38" stroke-miterlimit="10" stroke-linecap="round" stroke-linejoin="round"/>
<path d="M468.634 353.983C468.634 355.8 467.544 357.254 466.455 357.254C465.365 357.254 464.639 355.437 464.639 353.619C464.639 351.802 465.728 350.348 466.818 350.348C467.908 350.348 468.997 351.802 468.634 353.983Z" fill="#DB8C70"/>
<path d="M404.341 376.883L436.669 393.24" stroke="#1D4941" stroke-width="1.44" stroke-miterlimit="10" stroke-linecap="round"/>
<path opacity="0.56" d="M609.358 512.564C609.378 514.466 486.779 517.34 335.408 518.916C184.04 520.492 61.4087 520.247 61.3881 518.268C61.3683 516.366 183.967 513.492 335.335 511.916C486.706 510.341 609.339 510.661 609.358 512.564Z" fill="black" fill-opacity="0.2"/>
<defs>
<linearGradient id="paint0_linear_34_7" x1="38.4354" y1="278.243" x2="701.481" y2="274.702" gradientUnits="userSpaceOnUse">
<stop stop-color="#1A7F54"/>
<stop offset="1" stop-color="#7ADBAE"/>
</linearGradient>
<linearGradient id="paint1_linear_34_7" x1="20.9907" y1="304.644" x2="681.712" y2="249.062" gradientUnits="userSpaceOnUse">
<stop stop-color="#1A7F72"/>
<stop offset="1" stop-color="#7ADBAE"/>
</linearGradient>
<clipPath id="clip0_34_7">
<rect width="500" height="663.434" fill="white" transform="matrix(0.00534047 0.999986 0.999986 -0.00534047 37.0593 28.3335)"/>
</clipPath>
<clipPath id="clip1_34_7">
<rect width="500" height="663.434" fill="white" transform="matrix(0.083827 0.99648 0.99648 -0.083827 0 55.6138)"/>
</clipPath>
</defs>
</svg>
