<svg width="766" height="533" viewBox="0 0 766 533" fill="none" xmlns="http://www.w3.org/2000/svg">
<g opacity="0.1" clip-path="url(#clip0_34_6)">
<path d="M242.809 135.08C277.38 129.719 313.554 132.644 347.486 123.893C393.26 112.375 429.899 81.75 469.058 57.219C508.602 33.0803 558.37 14.3016 602.769 30.3209C661.839 51.5491 679.391 120.319 688.204 178.208C697.637 239.858 707.069 301.507 716.483 363.529C721.71 396.245 725.984 431.897 707.609 460.45C684.415 496.597 634.25 507.149 589.232 511.616C410.33 530.289 -58.0045 526.305 88.9649 241.924C117.571 186.276 176.926 145.221 242.809 135.08Z" fill="url(#paint0_linear_34_6)"/>
</g>
<g opacity="0.1" clip-path="url(#clip1_34_6)">
<path d="M214.395 146.89C248.438 138.83 284.73 138.907 317.871 127.519C362.599 112.444 396.721 79.0365 433.834 51.5071C471.36 24.3386 519.5 1.71084 565.02 14.1951C625.575 30.7206 648.471 97.9005 661.801 154.918C676.044 215.638 690.288 276.357 704.541 337.448C712.321 369.653 719.38 404.859 703.303 434.767C683.019 472.622 633.837 487.08 589.309 495.067C412.425 527.727 -54.7773 560.522 69.4133 265.481C93.5626 207.759 149.512 162.171 214.395 146.89Z" fill="url(#paint1_linear_34_6)"/>
</g>
<path fill-rule="evenodd" clip-rule="evenodd" d="M521 160.497C521 160.497 543.74 125.881 579.639 128.157C607.281 129.934 650.333 145.27 652.2 188.906C654.586 238.615 630.195 224.219 635.106 247.364C640.026 270.867 660.487 272.118 658.046 288.295C655.606 304.473 634.156 320.077 635.137 330.077C636.117 340.077 651.433 363.664 640.972 374.682C628.428 388.262 614.074 387.566 615.413 397.556C618.081 417.18 635.366 420.305 631.492 422.914C627.619 425.522 569.63 428.126 559.328 404.406C551.693 386.704 565.914 368.784 567.431 358.36C570.456 337.154 546.272 317.024 530.863 303.465C515.444 289.549 523.68 262.118 523.312 248.163C523.302 234.199 486.404 221.207 521 160.497Z" fill="#1D3542"/>
<path d="M578.084 137.15C596.292 134.521 636.385 146.355 638.959 189.613C641.477 230.725 613.872 230.379 618.783 253.524C623.703 277.027 644.55 279.342 642.119 295.877C639.679 312.054 620.924 321.143 621.905 331.143C622.885 341.143 638.408 358.995 627.957 370.371C615.413 383.95 600.334 382.916 615.537 415.815" stroke="#01080A" stroke-miterlimit="10" stroke-linecap="round" stroke-linejoin="round"/>
<path d="M651.06 186.43C655.774 229.274 640.167 221.808 645.125 246.742C649.725 271.686 669.13 273.681 666.369 291.299C663.957 308.55 641.018 322.045 642.017 332.761C643.017 343.477 655.74 363.909 640.982 375.041" stroke="#01080A" stroke-miterlimit="10" stroke-linecap="round" stroke-linejoin="round"/>
<path d="M570.78 145.578C588.988 142.95 587.255 158.75 629.61 188.428C632.127 229.539 599.16 229.692 604.439 253.186C609.359 276.689 630.206 279.004 627.775 295.539C625.335 311.716 606.58 320.805 607.56 330.805C608.541 340.805 624.064 358.657 613.612 370.033C601.069 383.612 585.989 382.578 601.192 415.477" stroke="#01080A" stroke-miterlimit="10" stroke-linecap="round" stroke-linejoin="round"/>
<path d="M600.544 187.045C605.21 228.1 572.281 229.685 578.625 252.792C584.61 275.909 605.796 277.499 604.072 293.657C602.706 309.806 584.338 319.959 585.677 329.949C587.373 339.931 603.593 357.048 593.51 368.772C581.701 383.049 573.398 380.761 590.373 412.898" stroke="#01080A" stroke-miterlimit="10" stroke-linecap="round" stroke-linejoin="round"/>
<path d="M567.54 185.768C576.127 226.004 544.008 231.148 552.481 253.483C560.955 275.818 582.084 275.26 582.16 291.73C582.236 308.199 564.98 319.754 567.752 329.707C570.523 339.66 588.486 354.941 579.863 367.701C569.516 383.013 560.883 381.808 581.382 411.704" stroke="#01080A" stroke-miterlimit="10" stroke-linecap="round" stroke-linejoin="round"/>
<path d="M103.795 471.204C103.795 471.204 78.0284 486.206 76.6053 486.602C70.2439 489.992 50.1039 500.907 28.2017 512.943C19.6725 515.674 10.0501 517.718 11.2283 521.626C12.3971 525.176 46.5329 528.573 55.6367 520.455C59.4913 517.131 65.1176 513.044 69.8394 515.426C74.5612 517.808 86.7377 517.487 91.2518 511.997C95.4173 506.874 91.7228 502.674 94.4463 497.231C94.795 496.864 119.459 480.817 119.807 480.45C124.293 473.886 105.538 469.368 103.795 471.204Z" fill="#F4A082"/>
<path d="M359.387 432.953C359.387 432.953 352.498 429.912 349.039 434.658C340.887 438.096 340.162 451.364 340.162 451.364C340.162 451.364 333.348 451.185 329.182 456.308C327.787 457.777 322.368 456.13 323.546 460.038C324.319 462.166 356.033 468.849 358.983 471.994C361.556 474.432 359.123 436.541 359.387 432.953Z" fill="#F4A082"/>
<path d="M339.807 247.633C334.812 248.481 327.027 252.267 322.108 255.977C266.042 277.149 222.758 361.721 198.801 390.998C194.985 395.754 186.22 403.147 182.064 408.627C172.008 421.425 131.993 453.274 98.8283 473.126C98.1215 473.503 104.549 486.224 109.592 487.165C138.713 477.088 194.61 463.081 222.91 421.873C232.24 408.736 285.083 374.042 315.938 348.164C321.951 345.141 338.698 355.083 338.227 364.405C344.034 394.33 351.275 492.25 361.237 503.088C371.199 513.925 378.032 514.819 383.291 510.384C398.907 504.601 411.288 403.299 403.709 346.924C406.328 337.545 412.954 330.567 412.473 325.924C412.473 325.924 338.158 253.047 339.807 247.633Z" fill="#1F5148"/>
<path d="M330.954 250.725C330.954 250.725 359.932 315.04 409.986 333.069" stroke="#1D4941" stroke-width="1.5" stroke-miterlimit="10"/>
<path d="M326.325 253.192C326.325 253.192 351.362 323.767 408.019 336.345" stroke="#1D4941" stroke-width="1.5" stroke-miterlimit="10"/>
<path d="M546.523 190.619C539.059 192.964 515.008 205.056 514.188 201.139C513.792 199.717 514.715 193.964 514.31 192.184C510.747 179.388 536.72 145.044 526.721 146.382C515.298 148.116 431.553 193.292 425.182 196.325C421.648 198.208 395.297 218.239 373.094 232.431C363.226 238.779 348.666 243.817 338.035 248.395C358.497 290.465 410.06 329.568 412.472 325.923C419.691 314.275 438.031 289.442 461.639 287.746C465.239 288.367 492.448 287.291 498.819 284.259C505.19 281.226 542.238 299.943 541.71 279.905C541.181 259.867 523.001 236.356 527.223 233.38C531.445 230.404 542.764 224.734 554.374 216.551C565.646 209.092 553.987 188.273 546.523 190.619Z" fill="#F4A082"/>
<path opacity="0.6" d="M549.388 217.756C544.082 220.403 532.49 215.696 528.343 207.927C524.196 200.159 527.583 198.049 532.813 196.152C538.119 193.506 542.922 189.997 547.069 197.766C551.226 205.892 554.694 215.11 549.388 217.756Z" fill="#DB8C70"/>
<path d="M432.468 214.394C420.762 205.393 460.09 174.636 488.4 147.392C503.781 132.664 544.824 112.604 580.128 105.944C592.945 102.741 648.456 87.6708 706.276 105.84C706.276 105.84 707.162 112.262 700.668 110.643C694.184 109.381 606.244 117.788 585.331 126.575C574.333 130.803 540.546 140.646 523.017 155.431C505.488 170.216 491.164 211.414 463.681 202.113C435.473 192.472 428.933 216.278 432.468 214.394Z" fill="#F4A082"/>
<path d="M687.917 102.744C699.254 97.7899 710.95 92.8266 716.699 93.3911C724.955 93.8895 733.248 95.8193 739.092 99.962C744.926 103.747 756.575 110.601 755.528 111.703C754.482 112.805 724.767 113.946 724.767 113.946C724.767 113.946 714.711 113.137 716.926 115.585C719.141 118.034 730.554 115.942 730.705 121.667C730.705 121.667 721.384 121.555 717.793 121.292C714.202 121.028 692.281 118.742 684.486 108.563C684.844 108.554 683.666 104.646 687.917 102.744Z" fill="#F4A082"/>
<path d="M536.68 388.175C539.697 393.824 558.509 441.309 561.885 487.769C567.973 487.609 572.384 491.79 578.482 491.987C565.833 474.417 578.253 428.972 557.584 379.03C548.404 357.071 547.045 291.938 545.772 284.452C542.907 270.921 542.906 257.315 530.531 250.122C518.157 242.928 485.379 263.845 486.887 280.276C486.887 280.276 512.852 272.788 511.787 286.781C511.872 290.001 533.664 382.525 536.68 388.175Z" fill="#F4A082"/>
<path d="M600.903 499.632C600.903 499.632 583.986 496.856 581.074 495.142C578.152 493.071 572.403 478.899 572.346 476.753L563.364 475.915C556.824 486.114 560.622 494.249 556.099 499.381C554.007 501.585 549.455 505.644 551.632 506.661C554.893 508.007 557.739 507.216 560.529 504.277C563.318 501.339 567.521 497.648 569.397 500.821C570.914 504.004 573.139 506.81 577.455 507.412C581.772 508.014 615.436 507.126 615.021 504.989C614.248 502.861 600.903 499.632 600.903 499.632Z" fill="#F4A082"/>
<path d="M562.6 161.549C562.6 161.549 565.258 153.601 558.529 156.643C544.364 163.104 546.767 172.709 546.796 173.782C546.834 175.213 562.6 161.549 562.6 161.549Z" fill="#F4A082"/>
<path d="M591.31 217.368C591.31 217.368 599.255 219.665 592.903 223.413C579.492 231.286 573.215 224.29 572.112 223.245C571.377 222.548 591.31 217.368 591.31 217.368Z" fill="#F4A082"/>
<path fill-rule="evenodd" clip-rule="evenodd" d="M576.398 154.741C571.431 156.662 565.041 158.979 559.396 162.351C531.123 177.419 532.386 198.154 539.578 212.645C548.701 232.456 580.481 228.038 594.909 217.989C604.06 211.661 607.906 207.979 612.401 201.773C622.277 182.177 611.779 191.763 576.398 154.741Z" fill="#F4A082"/>
<path d="M378.032 229.437C396.382 232.176 435.476 274.114 431.924 302.495C431.924 302.495 457.719 288.566 459.877 288.867C461.309 288.829 462.751 289.15 463.826 289.121C490.507 295.221 504.577 285.182 509.026 277.187C513.474 269.192 524.689 259.587 529.589 255.161C534.499 251.092 535.112 247.138 535.112 247.138L531.483 245.443C531.483 245.443 510.901 266.754 506.914 265.068C502.937 263.741 474.521 246.229 471.185 242.02C468.207 237.802 477.941 199.231 484.689 196.905C491.437 194.579 510.39 193.005 515.451 194.662C516.902 195.339 516.76 189.972 515.328 190.01C513.528 189.699 482.333 189.09 461.806 185.334C455.68 184.063 458.837 181.474 448.093 181.757C436.661 183.133 378.013 228.722 378.032 229.437Z" fill="#FFD2B9"/>
<path d="M585.465 186.011C579.151 191.191 571.338 193.903 569.547 193.95C567.031 193.659 566.927 189.722 565.523 190.834C562.008 193.433 564.289 198.386 566.833 199.751" stroke="#EFAFA3" stroke-width="1.38" stroke-miterlimit="10" stroke-linecap="round" stroke-linejoin="round"/>
<path opacity="0.69" d="M576.634 163.686C578.462 165.07 581.431 168.931 581.893 172.857" stroke="#682C1A" stroke-width="1.31" stroke-miterlimit="10" stroke-linecap="round" stroke-linejoin="round"/>
<path d="M571.668 179.213C568.435 178.94 565.07 173.658 566.408 170.042" stroke="#49241B" stroke-miterlimit="10" stroke-linecap="round" stroke-linejoin="round"/>
<path d="M587.539 210.305C584.307 210.033 580.942 204.75 582.28 201.134" stroke="#49241B" stroke-miterlimit="10" stroke-linecap="round" stroke-linejoin="round"/>
<path opacity="0.69" d="M597.416 204.315C597.35 201.811 595.437 197.206 592.854 194.41" stroke="#682C1A" stroke-width="1.31" stroke-miterlimit="10" stroke-linecap="round" stroke-linejoin="round"/>
<path d="M555.542 192.888C554.506 194.348 554.751 203.651 562.696 205.948" stroke="#BC4926" stroke-width="1.45" stroke-miterlimit="10" stroke-linecap="round" stroke-linejoin="round"/>
<path opacity="0.24" fill-rule="evenodd" clip-rule="evenodd" d="M559.991 184.892C556.768 184.977 553.799 181.117 553.327 176.832C552.847 172.19 555.269 168.903 558.492 168.818C561.715 168.733 564.684 172.594 565.155 176.878C565.268 181.172 563.214 184.807 559.991 184.892Z" fill="#ED5851"/>
<path opacity="0.24" fill-rule="evenodd" clip-rule="evenodd" d="M571.725 208.574C570.368 211.474 571.913 215.73 575.57 218.499C579.218 220.909 583.515 220.795 584.872 217.895C586.229 214.995 584.683 210.739 581.027 207.971C577.379 205.56 573.082 205.674 571.725 208.574Z" fill="#ED5851"/>
<path opacity="0.6" d="M375.244 286.801C373.84 287.912 372.049 287.959 371.314 287.262C370.579 286.565 371.606 284.748 373.01 283.637C374.414 282.526 376.205 282.478 376.94 283.175C377.675 283.872 377.006 285.68 375.244 286.801Z" fill="#DB8C70"/>
<path d="M587.924 143.336C598.328 143.778 621.975 157.119 630.439 179.096" stroke="#01080A" stroke-miterlimit="10" stroke-linecap="round" stroke-linejoin="round"/>
<path opacity="0.56" d="M606.824 512.499C606.871 514.401 483.705 519.09 331.606 522.908C179.509 526.726 56.2656 528.297 56.2159 526.319C56.1682 524.417 179.334 519.728 331.431 515.91C483.53 512.092 606.776 510.597 606.824 512.499Z" fill="black" fill-opacity="0.2"/>
<defs>
<linearGradient id="paint0_linear_34_6" x1="65.2164" y1="249.605" x2="727.447" y2="282.667" gradientUnits="userSpaceOnUse">
<stop stop-color="#1A7F54"/>
<stop offset="1" stop-color="#7ADBAE"/>
</linearGradient>
<linearGradient id="paint1_linear_34_6" x1="46.3411" y1="275.002" x2="709.123" y2="255.975" gradientUnits="userSpaceOnUse">
<stop stop-color="#1A7F72"/>
<stop offset="1" stop-color="#7ADBAE"/>
</linearGradient>
<clipPath id="clip0_34_6">
<rect width="500" height="663.434" fill="white" transform="matrix(-0.0498641 0.998756 0.998756 0.0498641 77.6367 0)"/>
</clipPath>
<clipPath id="clip1_34_6">
<rect width="500" height="663.434" fill="white" transform="matrix(0.0286964 0.999588 0.999588 -0.0286964 39.1281 25.1929)"/>
</clipPath>
</defs>
</svg>
